<svg width="18" height="18" viewBox="0 0 18 18" fill="none" xmlns="http://www.w3.org/2000/svg">
<path d="M6.83317 15.293C6.58317 14.8346 6.36442 14.3589 6.17692 13.8659C5.98942 13.3728 5.83317 12.8624 5.70817 12.3346H3.24984C3.65262 13.0291 4.15609 13.6332 4.76025 14.1471C5.36442 14.661 6.05539 15.043 6.83317 15.293ZM2.5415 10.668H5.37484C5.33317 10.3902 5.30192 10.1159 5.28109 9.84505C5.26025 9.57422 5.24984 9.29297 5.24984 9.0013C5.24984 8.70963 5.26025 8.42839 5.28109 8.15755C5.30192 7.88672 5.33317 7.61241 5.37484 7.33464H2.5415C2.47206 7.61241 2.41998 7.88672 2.38525 8.15755C2.35053 8.42839 2.33317 8.70963 2.33317 9.0013C2.33317 9.29297 2.35053 9.57422 2.38525 9.84505C2.41998 10.1159 2.47206 10.3902 2.5415 10.668ZM3.24984 5.66797H5.70817C5.83317 5.14019 5.98942 4.62977 6.17692 4.13672C6.36442 3.64366 6.58317 3.16797 6.83317 2.70964C6.05539 2.95964 5.36442 3.34158 4.76025 3.85547C4.15609 4.36936 3.65262 4.97352 3.24984 5.66797ZM7.4165 5.66797H10.5832C10.4165 5.05686 10.2012 4.48047 9.93734 3.9388C9.67345 3.39714 9.36095 2.8763 8.99984 2.3763C8.63873 2.8763 8.32623 3.39714 8.06234 3.9388C7.79845 4.48047 7.58317 5.05686 7.4165 5.66797ZM12.2915 5.66797H14.7498C14.3471 4.97352 13.8436 4.36936 13.2394 3.85547C12.6353 3.34158 11.9443 2.95964 11.1665 2.70964C11.4165 3.16797 11.6353 3.64366 11.8228 4.13672C12.0103 4.62977 12.1665 5.14019 12.2915 5.66797ZM8.99984 17.3346C7.86095 17.3346 6.78456 17.1159 5.77067 16.6784C4.75678 16.2409 3.87136 15.6437 3.11442 14.8867C2.35748 14.1298 1.76025 13.2444 1.32275 12.2305C0.885254 11.2166 0.666504 10.1402 0.666504 9.0013C0.666504 7.84852 0.885254 6.76866 1.32275 5.76172C1.76025 4.75477 2.35748 3.87283 3.11442 3.11589C3.87136 2.35894 4.75678 1.76172 5.77067 1.32422C6.78456 0.886719 7.86095 0.667969 8.99984 0.667969C10.1526 0.667969 11.2325 0.886719 12.2394 1.32422C13.2464 1.76172 14.1283 2.35894 14.8853 3.11589C15.6422 3.87283 16.2394 4.75477 16.6769 5.76172C17.1144 6.76866 17.3332 7.84852 17.3332 9.0013C17.3332 9.14019 17.3297 9.27908 17.3228 9.41797C17.3158 9.55686 17.3054 9.69575 17.2915 9.83463H15.604C15.6318 9.69575 15.6491 9.56033 15.6561 9.42838C15.663 9.29644 15.6665 9.15408 15.6665 9.0013C15.6665 8.70963 15.6491 8.42839 15.6144 8.15755C15.5797 7.88672 15.5276 7.61241 15.4582 7.33464H12.6248C12.6665 7.61241 12.6978 7.88672 12.7186 8.15755C12.7394 8.42839 12.7498 8.70963 12.7498 9.0013V9.42838C12.7498 9.56033 12.7429 9.69575 12.729 9.83463H11.0623C11.0762 9.69575 11.0832 9.56033 11.0832 9.42838V9.0013C11.0832 8.70963 11.0728 8.42839 11.0519 8.15755C11.0311 7.88672 10.9998 7.61241 10.9582 7.33464H7.0415C6.99984 7.61241 6.96859 7.88672 6.94775 8.15755C6.92692 8.42839 6.9165 8.70963 6.9165 9.0013C6.9165 9.29297 6.92692 9.57422 6.94775 9.84505C6.96859 10.1159 6.99984 10.3902 7.0415 10.668H9.83317V12.3346H7.4165C7.58317 12.9457 7.79845 13.5221 8.06234 14.0638C8.32623 14.6055 8.63873 15.1263 8.99984 15.6263C9.15261 15.4041 9.29845 15.1784 9.43734 14.9492C9.57623 14.7201 9.70817 14.4874 9.83317 14.2513V17.293C9.69428 17.3069 9.55886 17.3173 9.42692 17.3242C9.29498 17.3312 9.15261 17.3346 8.99984 17.3346ZM15.6248 16.8138L13.1665 14.3555V16.2096H11.4998V11.5013H16.2082V13.168H14.3332L16.7915 15.6263L15.6248 16.8138Z" fill="#E9407A"/>
</svg>
