<svg width="20" height="14" viewBox="0 0 20 14" fill="none" xmlns="http://www.w3.org/2000/svg">
<path d="M0.678711 13.9196V11.4069C0.678711 10.9038 0.808864 10.4414 1.06917 10.0197C1.32949 9.59793 1.67533 9.27608 2.10669 9.05413C2.97777 8.62025 3.86433 8.29401 4.76636 8.07542C5.6684 7.85682 6.58453 7.74752 7.51475 7.74752C8.45135 7.74752 9.37074 7.85599 10.2729 8.07292C11.1751 8.28986 12.0584 8.61527 12.9228 9.04915C13.3542 9.27063 13.7 9.59178 13.9604 10.0126C14.2207 10.4334 14.3508 10.8981 14.3508 11.4067V13.9196H0.678711ZM16.0922 13.9196V11.2552C16.0922 10.6308 15.9237 10.0291 15.5868 9.44996C15.2498 8.87086 14.7639 8.35501 14.1289 7.90242C14.8007 7.99239 15.4358 8.13558 16.0342 8.33198C16.6327 8.52838 17.1961 8.76744 17.7245 9.04915C18.2377 9.32692 18.6321 9.65473 18.9076 10.0326C19.1832 10.4104 19.3209 10.8229 19.3209 11.2702V13.9196H16.0922ZM7.51475 6.91419C6.57152 6.91419 5.76604 6.58033 5.09832 5.9126C4.43059 5.24487 4.09673 4.43938 4.09673 3.49615C4.09673 2.55291 4.43059 1.74743 5.09832 1.07971C5.76604 0.411986 6.57152 0.078125 7.51475 0.078125C8.45799 0.078125 9.26348 0.411986 9.93121 1.07971C10.5989 1.74743 10.9328 2.55291 10.9328 3.49615C10.9328 4.43938 10.5989 5.24487 9.93121 5.9126C9.26348 6.58033 8.45799 6.91419 7.51475 6.91419ZM16.0922 3.4961C16.0922 4.43605 15.7576 5.24072 15.0884 5.9101C14.4192 6.57949 13.6147 6.91419 12.675 6.91419C12.5184 6.91419 12.3236 6.89599 12.0909 6.8596C11.8581 6.82323 11.6586 6.78088 11.4926 6.73256C11.8742 6.28148 12.1666 5.77871 12.3696 5.22425C12.5727 4.66979 12.6742 4.09401 12.6742 3.4969C12.6742 2.89979 12.5727 2.32375 12.3696 1.76879C12.1666 1.21385 11.8742 0.710826 11.4926 0.259729C11.6903 0.186965 11.8864 0.138507 12.0809 0.114354C12.2753 0.0902017 12.4723 0.078125 12.6718 0.078125C13.6124 0.078125 14.4176 0.412805 15.0875 1.08217C15.7573 1.75151 16.0922 2.55616 16.0922 3.4961ZM2.57454 12.0238H12.455V11.4319C12.455 11.2823 12.4168 11.1463 12.3404 11.024C12.264 10.9016 12.1633 10.8064 12.0383 10.7385C11.3082 10.3767 10.5662 10.1038 9.81232 9.91963C9.05838 9.73545 8.29253 9.64335 7.51475 9.64335C6.74363 9.64335 5.97778 9.73545 5.21721 9.91963C4.45664 10.1038 3.71464 10.3767 2.99121 10.7385C2.86621 10.8064 2.76552 10.9016 2.68913 11.024C2.61274 11.1463 2.57454 11.2823 2.57454 11.4319V12.0238ZM7.51396 5.09306C7.95291 5.09306 8.32893 4.93678 8.64202 4.62421C8.95514 4.31164 9.11169 3.93588 9.11169 3.49694C9.11169 3.05801 8.9554 2.68199 8.64282 2.3689C8.33025 2.05578 7.95449 1.89923 7.51554 1.89923C7.07661 1.89923 6.7006 2.05552 6.3875 2.3681C6.07439 2.68067 5.91784 3.05642 5.91784 3.49535C5.91784 3.9343 6.07413 4.31032 6.38671 4.62342C6.69928 4.93651 7.07503 5.09306 7.51396 5.09306Z" fill="#6548EE"/>
</svg>
