<svg width="17" height="10" viewBox="0 0 17 10" fill="none" xmlns="http://www.w3.org/2000/svg">
<path d="M7.5921 9.33619H4.3335C3.13386 9.33619 2.11128 8.91346 1.26575 8.068C0.420207 7.22254 -0.00256348 6.20005 -0.00256348 5.00052C-0.00256348 3.80098 0.420207 2.77835 1.26575 1.93265C2.11128 1.08692 3.13386 0.664062 4.3335 0.664062H7.5921V2.55992H4.33562C3.65719 2.55992 3.08053 2.79716 2.60565 3.27165C2.13074 3.74613 1.89329 4.32229 1.89329 5.00012C1.89329 5.67796 2.13074 6.25412 2.60565 6.7286C3.08053 7.20309 3.65719 7.44033 4.33562 7.44033H7.5921V9.33619ZM5.05225 5.87331V4.12694H11.9481V5.87331H5.05225ZM9.40823 9.33619V7.44033H12.6647C13.3431 7.44033 13.9198 7.20309 14.3947 6.7286C14.8696 6.25412 15.107 5.67796 15.107 5.00012C15.107 4.32229 14.8696 3.74613 14.3947 3.27165C13.9198 2.79716 13.3431 2.55992 12.6647 2.55992H9.40823V0.664062H12.6668C13.8665 0.664062 14.8891 1.08679 15.7346 1.93225C16.5801 2.77771 17.0029 3.8002 17.0029 4.99973C17.0029 6.19927 16.5801 7.2219 15.7346 8.0676C14.8891 8.91333 13.8665 9.33619 12.6668 9.33619H9.40823Z" fill="#0073E6"/>
</svg>
